<svg height="512" viewBox="0 0 64 64" width="512" xmlns="http://www.w3.org/2000/svg"><g id="Computer-Education-Learning-Graduation-Online"><path d="m61 9v32h-58v-32a6.018 6.018 0 0 1 6-6h46a6 6 0 0 1 6 6z" fill="#5aaae7"/><path d="m34 12-17 8 7 3.29v11.71a77.213 77.213 0 0 0 10 1 77.213 77.213 0 0 0 10-1v-11.71l7-3.29z" fill="#3d9ae2"/><path d="m61 41v2a6.018 6.018 0 0 1 -6 6h-46a6.018 6.018 0 0 1 -6-6v-2z" fill="#c6c5ca"/><path d="m49 18-7 3.29-10 4.71-10-4.71-7-3.29 17-8z" fill="#acabb1"/><path d="m45 57a2.006 2.006 0 0 1 2 2 2.015 2.015 0 0 1 -2 2h-26a2.006 2.006 0 0 1 -2-2 2.015 2.015 0 0 1 2-2z" fill="#898890"/><path d="m42 21.29v11.71a77.213 77.213 0 0 1 -10 1 77.213 77.213 0 0 1 -10-1v-11.71l10 4.71z" fill="#898890"/><path d="m41 57h-18l1-8h16z" fill="#acabb1"/><path d="m40.25 51h-16.5l.25-2h16z" fill="#898890"/><path d="m55 2h-46a7.008 7.008 0 0 0 -7 7v34a7.008 7.008 0 0 0 7 7h13.867l-.75 6h-3.117a3 3 0 0 0 0 6h26a3 3 0 0 0 0-6h-3.117l-.75-6h13.867a7.008 7.008 0 0 0 7-7v-34a7.008 7.008 0 0 0 -7-7zm-46 2h46a5.006 5.006 0 0 1 5 5v31h-56v-31a5.006 5.006 0 0 1 5-5zm37 55a1 1 0 0 1 -1 1h-26a1 1 0 0 1 0-2h26a1 1 0 0 1 1 1zm-6.133-3h-15.734l.75-6h14.234zm15.133-8h-46a5.006 5.006 0 0 1 -5-5v-1h56v1a5.006 5.006 0 0 1 -5 5z"/><path d="m54 44h2v2h-2z"/><path d="m14.574 18.905 6.426 3.024v11.071a1 1 0 0 0 .835.986 77.01 77.01 0 0 0 10.165 1.014 77.01 77.01 0 0 0 10.165-1.014 1 1 0 0 0 .835-.986v-11.071l5-2.353v4.01l-2.707 2.707 1.414 1.414 1.293-1.293v1.586h2v-1.573l1.287 1.286 1.413-1.413-2.7-2.7v-5.6a1 1 0 0 0 -.574-.905l-17-8a1 1 0 0 0 -.852 0l-17 8a1 1 0 0 0 0 1.81zm26.426 13.24a70.553 70.553 0 0 1 -9 .855 70.553 70.553 0 0 1 -9-.855v-9.275l8.574 4.035a1 1 0 0 0 .852 0l8.574-4.035zm-9-21.04 14.651 6.895-14.651 6.9-14.651-6.9z"/><path d="m47.414 10h2.586v-2h-3a1 1 0 0 0 -.707.293l-3 3 1.414 1.414z"/><path d="m52 8h4v2h-4z"/><path d="m52 12h4v2h-4z"/><path d="m19.293 12.707 1.414-1.414-3-3a1 1 0 0 0 -.707-.293h-3v2h2.586z"/><path d="m8 8h4v2h-4z"/><path d="m8 12h4v2h-4z"/><path d="m8 33h8v2h-8z"/><path d="m8 29h8v2h-8z"/><path d="m8 25h2v2h-2z"/><path d="m12 25h4v2h-4z"/></g></svg>